<svg width="22" height="16" viewBox="0 0 22 16" fill="none" xmlns="http://www.w3.org/2000/svg">
<g clip-path="url(#clip0_222_28)">
<path d="M18.1863 9.2031C18.0236 9.2031 17.9324 9.2031 17.8348 9.2031C12.6196 9.2031 7.40446 9.2031 2.18932 9.2031C2.02655 9.2031 1.85727 9.2031 1.70752 9.16407C1.20619 9.02746 0.90669 8.55909 0.965287 8.02567C1.01737 7.54429 1.43406 7.16049 1.94191 7.14098C2.04608 7.13447 2.15025 7.14098 2.26094 7.14098C7.45655 7.14098 12.6587 7.14098 17.8543 7.14098C17.9454 7.14098 18.0301 7.14098 18.1798 7.14098C18.0952 7.0434 18.0431 6.97835 17.9845 6.9198C16.5977 5.52771 15.2044 4.13561 13.8176 2.74352C13.2316 2.15155 13.453 1.20831 14.2278 0.987139C14.638 0.870047 14.9895 0.980634 15.2956 1.28637C17.2293 3.2249 19.163 5.16342 21.1032 7.10195C21.2269 7.22554 21.3506 7.34263 21.4613 7.46623C21.8454 7.89557 21.8389 8.47452 21.4483 8.90386C21.292 9.0795 21.1162 9.24213 20.9534 9.40476C19.0393 11.3173 17.1316 13.2363 15.2174 15.1488C14.7617 15.6041 14.1171 15.6301 13.6939 15.2138C13.2642 14.791 13.2902 14.134 13.7525 13.6721C15.1718 12.254 16.5912 10.8294 18.0106 9.41126C18.0496 9.35271 18.0952 9.30067 18.1863 9.2031Z" fill="white"/>
</g>
<defs>
<clipPath id="clip0_222_28">
<rect width="20.8" height="14.63" fill="white" transform="translate(0.949951 0.869995)"/>
</clipPath>
</defs>
</svg>
